<?xml version="1.0" standalone="no"?>
<!DOCTYPE svg PUBLIC "-//W3C//DTD SVG 20010904//EN"
 "http://www.w3.org/TR/2001/REC-SVG-20010904/DTD/svg10.dtd">
<svg version="1.0" xmlns="http://www.w3.org/2000/svg"
 width="3750.000000pt" height="3750.000000pt" viewBox="0 0 3750.000000 3750.000000"
 preserveAspectRatio="xMidYMid meet">

<g transform="translate(0.000000,3750.000000) scale(0.100000,-0.100000)"
fill="#000000" stroke="none">
<path d="M0 18750 l0 -18750 18750 0 18750 0 0 18750 0 18750 -18750 0 -18750
0 0 -18750z m17638 3255 c185 -45 298 -152 366 -345 27 -76 30 -97 30 -200 0
-99 -4 -126 -28 -195 -140 -410 -596 -626 -961 -456 -76 35 -173 115 -213 176
-64 97 -95 258 -81 424 14 168 77 281 242 437 100 95 186 149 272 171 65 16
287 10 373 -12z m-9178 -255 c120 -8 182 -16 197 -26 32 -20 59 -117 83 -296
11 -84 45 -304 75 -488 30 -184 91 -569 135 -855 111 -715 151 -950 169 -982
11 -21 297 440 1145 1848 l468 776 151 6 c247 11 1537 21 1600 13 42 -6 57
-12 57 -23 0 -9 -36 -180 -81 -382 -44 -201 -100 -465 -125 -585 -53 -258
-113 -532 -223 -1006 -44 -190 -105 -469 -136 -620 -31 -151 -99 -464 -151
-695 -147 -650 -258 -1153 -300 -1347 -20 -97 -40 -181 -43 -186 -6 -10 -863
-42 -1108 -42 -136 0 -143 1 -143 20 0 28 45 253 91 459 107 475 512 2329 544
2490 20 102 35 194 33 205 -5 31 -89 -98 -323 -494 -398 -672 -1292 -2149
-1516 -2503 -72 -115 -75 -118 -124 -132 -84 -24 -169 -34 -355 -41 l-178 -7
-6 29 c-19 96 -352 2138 -426 2619 -53 340 -84 503 -99 518 -18 18 -59 -125
-122 -426 -22 -106 -141 -646 -264 -1202 -123 -555 -250 -1129 -282 -1275
l-58 -265 -150 -6 c-82 -4 -353 -7 -600 -8 -505 -1 -495 -2 -495 65 0 19 15
97 34 172 19 75 53 223 75 327 237 1116 407 1888 706 3215 102 454 200 890
217 970 17 80 34 148 37 152 23 26 1099 32 1491 8z m19321 -10 c218 -41 373
-254 340 -466 -28 -182 -173 -329 -346 -352 -139 -18 -260 22 -356 117 -257
258 -83 689 287 710 12 0 46 -4 75 -9z m-1296 -349 c57 -32 70 -72 70 -206 0
-183 -7 -209 -75 -280 -67 -71 -120 -150 -166 -251 -31 -67 -68 -193 -59 -202
14 -15 120 -23 384 -31 179 -6 308 -14 314 -20 10 -10 4 -42 -118 -571 -36
-157 -70 -297 -76 -311 -6 -15 -22 -32 -37 -39 -39 -17 -182 -29 -454 -38
-130 -4 -239 -10 -242 -12 -5 -6 -169 -736 -210 -940 -41 -202 -66 -359 -73
-445 -5 -69 -3 -86 15 -122 33 -64 104 -120 185 -144 62 -19 83 -21 207 -14
l137 7 7 -124 c3 -67 9 -222 12 -342 4 -120 10 -231 14 -245 l8 -26 15 36 c35
79 195 778 492 2144 109 501 263 1176 269 1183 8 7 943 15 1008 8 111 -12 109
-4 66 -213 -48 -232 -245 -1110 -397 -1768 -128 -557 -225 -1003 -290 -1340
-23 -115 -43 -220 -46 -232 l-5 -23 -393 0 c-427 0 -653 11 -700 35 -42 21
-62 19 -134 -15 -115 -54 -294 -80 -558 -80 -275 0 -427 23 -596 89 -282 110
-434 261 -496 491 -15 52 -18 104 -18 265 1 240 4 259 146 905 116 525 179
833 179 872 0 49 -21 53 -307 56 -164 2 -263 7 -263 13 0 6 14 64 30 129 31
122 38 190 20 190 -18 0 -91 -80 -220 -240 -174 -217 -239 -290 -255 -290 -8
0 -40 21 -72 47 -137 112 -324 208 -553 283 -162 54 -259 70 -414 70 -207 0
-291 -33 -340 -131 -34 -69 -37 -163 -5 -202 35 -46 239 -130 679 -282 390
-135 589 -233 758 -374 120 -100 213 -246 254 -400 27 -102 30 -318 5 -444
-47 -235 -154 -440 -314 -603 -174 -176 -378 -294 -656 -378 -315 -96 -724
-112 -1101 -45 -134 24 -344 78 -446 115 -250 90 -667 318 -784 428 l-37 34
20 39 c32 62 115 175 281 382 169 211 247 295 279 304 27 7 57 -10 137 -79
265 -224 651 -389 998 -424 245 -26 418 30 481 154 93 184 -81 314 -660 492
-286 88 -360 116 -505 190 -419 215 -604 527 -560 947 28 276 136 484 366 708
55 52 133 118 174 146 561 378 1397 360 2200 -47 108 -55 156 -86 215 -140 43
-39 83 -70 89 -70 35 0 59 62 106 270 16 74 32 145 35 156 5 21 10 22 257 26
309 7 326 11 349 83 10 28 43 160 74 295 72 309 122 494 147 543 10 21 30 42
46 48 58 22 203 28 632 23 396 -5 448 -7 475 -23z m-12287 -929 c132 -29 242
-67 357 -125 132 -66 196 -110 305 -212 86 -81 126 -105 149 -91 17 11 31 77
31 151 0 87 21 133 72 158 59 29 256 39 658 35 367 -5 411 -9 423 -42 4 -9
-45 -242 -109 -519 -63 -276 -200 -884 -304 -1352 -335 -1504 -359 -1608 -370
-1619 -14 -14 -900 -21 -1004 -8 -106 14 -113 22 -88 103 19 62 43 175 58 269
l7 44 -84 -78 c-230 -217 -392 -311 -649 -378 -151 -40 -399 -50 -556 -24
-533 91 -905 459 -1016 1008 -21 104 -23 139 -23 423 1 243 4 336 18 430 68
456 207 815 437 1120 274 363 663 623 1056 704 143 30 142 30 349 26 143 -3
213 -8 283 -23z m5527 18 c590 -55 1052 -336 1283 -779 169 -324 217 -621 183
-1149 -13 -201 -39 -239 -190 -281 -49 -13 -211 -15 -1233 -18 -1014 -3 -1178
-6 -1178 -18 0 -8 13 -50 29 -94 97 -266 346 -445 691 -497 265 -40 637 15
868 128 l83 41 33 -32 c117 -114 329 -619 296 -706 -22 -58 -418 -223 -664
-277 -96 -22 -123 -23 -551 -23 -514 0 -539 3 -784 91 -315 114 -526 245 -713
443 -268 285 -381 611 -381 1106 0 353 55 588 208 896 118 235 244 409 434
600 214 214 383 329 628 427 299 119 648 171 958 142z m10710 -19 c290 -50
587 -159 735 -270 201 -151 390 -358 390 -427 0 -9 -6 -22 -14 -28 -83 -67
-588 -442 -674 -500 -133 -90 -119 -92 -256 34 -98 89 -215 153 -336 185 -100
26 -327 32 -431 10 -169 -34 -272 -90 -410 -225 -224 -219 -338 -495 -326
-785 11 -255 119 -449 325 -585 126 -84 249 -113 477 -113 225 0 268 15 506
175 81 54 151 98 157 98 10 0 136 -148 455 -535 142 -170 148 -180 130 -195
-10 -8 -57 -47 -103 -86 -289 -244 -661 -397 -1074 -445 -131 -15 -473 -6
-591 16 -381 70 -682 207 -928 422 -630 550 -672 1602 -97 2415 74 104 256
298 370 393 279 233 626 390 990 449 146 24 151 24 375 21 155 -2 242 -9 330
-24z m-12757 -60 c23 -4 45 -11 48 -14 10 -10 -17 -167 -62 -353 -25 -104
-124 -542 -220 -974 -416 -1866 -535 -2380 -589 -2545 -100 -307 -262 -575
-474 -785 -177 -175 -332 -263 -542 -308 -114 -24 -144 -26 -379 -26 -260 -1
-349 6 -540 45 -194 39 -364 105 -445 172 -62 51 -51 85 160 467 178 325 209
370 248 370 10 0 38 -16 61 -35 127 -104 399 -149 527 -87 137 66 257 233 329
457 39 121 338 1450 680 3020 133 614 121 568 154 584 15 7 69 17 120 21 115
11 866 4 924 -9z"/>
<path d="M13895 19460 c-285 -75 -541 -314 -634 -594 -45 -138 -64 -275 -58
-421 10 -217 67 -355 202 -491 137 -138 296 -198 530 -198 186 1 275 31 458
156 120 83 165 140 208 267 28 81 189 869 191 933 1 41 -4 64 -21 91 -69 112
-270 221 -481 261 -114 22 -305 20 -395 -4z"/>
<path d="M19380 19599 c-104 -12 -159 -33 -248 -92 -94 -63 -269 -230 -329
-315 -34 -47 -82 -157 -83 -189 0 -7 1095 -1 1252 6 215 10 228 15 228 91 0
98 -71 232 -180 339 -98 96 -214 141 -416 161 -112 11 -121 11 -224 -1z"/>
</g>
</svg>
