<?xml version="1.0" standalone="no"?>
<!DOCTYPE svg PUBLIC "-//W3C//DTD SVG 20010904//EN"
 "http://www.w3.org/TR/2001/REC-SVG-20010904/DTD/svg10.dtd">
<svg version="1.0" xmlns="http://www.w3.org/2000/svg"
 width="204.000000pt" height="204.000000pt" viewBox="0 0 204.000000 204.000000"
 preserveAspectRatio="xMidYMid meet">

<g transform="translate(0.000000,204.000000) scale(0.100000,-0.100000)"
fill="#000000" stroke="none">
<path d="M1364 1896 c-177 -45 -339 -87 -360 -94 -35 -10 -44 -21 -92 -107
l-54 -95 -112 0 -113 0 -277 -272 -277 -273 273 -272 273 -273 111 0 c128 0
116 7 188 -117 38 -65 54 -84 79 -92 74 -23 719 -193 721 -189 3 3 60 215 162
601 19 70 34 135 34 143 0 9 -23 54 -52 102 -28 48 -51 92 -51 97 0 6 23 50
52 98 28 49 51 94 51 102 0 12 -82 328 -118 453 -10 35 -21 59 -26 55 -4 -4
-5 6 -1 22 4 19 3 25 -3 17 -9 -13 -9 -12 -47 121 -9 31 -22 56 -28 56 -7 -1
-157 -38 -333 -83z m68 -213 c-5 -15 -52 -98 -103 -185 -52 -86 -120 -202
-152 -257 l-58 -101 -325 0 c-200 0 -324 4 -322 9 1 6 94 104 206 219 167 173
208 211 235 214 17 3 86 19 152 37 193 53 370 98 374 95 2 -2 -1 -16 -7 -31z
m216 -173 c16 -58 51 -183 78 -279 l48 -175 -24 -90 c-57 -220 -137 -489 -142
-480 -87 146 -318 558 -318 565 0 17 319 573 325 567 2 -2 16 -50 33 -108z
m-486 -622 c79 -129 290 -499 287 -503 -4 -3 -500 121 -556 139 -20 6 -423
416 -423 430 0 3 146 6 324 6 l324 0 44 -72z"/>
<path d="M1731 1950 c0 -8 4 -24 9 -35 5 -13 9 -14 9 -5 0 8 -4 24 -9 35 -5
13 -9 14 -9 5z"/>
<path d="M1751 1874 c0 -11 3 -14 6 -6 3 7 2 16 -1 19 -3 4 -6 -2 -5 -13z"/>
</g>
</svg>
